<svg xmlns="http://www.w3.org/2000/svg" width="1200" height="675" viewBox="0 0 1200 675" role="img" aria-label="Similar Route Trip placeholder">
  <rect width="1200" height="675" fill="#f4efe5"/>
  <rect x="70" y="70" width="1060" height="535" rx="28" fill="#e3d2b5"/>
  <path d="M0 500 L220 380 L420 450 L620 290 L820 365 L1200 220 L1200 675 L0 675 Z" fill="#c8b48a"/>
  <path d="M0 560 L250 470 L430 510 L650 360 L810 430 L1200 310 L1200 675 L0 675 Z" fill="#7b9a73"/>
  <rect x="420" y="390" width="360" height="118" rx="24" fill="#f8faf7"/>
  <rect x="470" y="415" width="260" height="58" rx="18" fill="#213547"/>
  <circle cx="500" cy="520" r="34" fill="#213547"/>
  <circle cx="700" cy="520" r="34" fill="#213547"/>
  <text x="600" y="176" text-anchor="middle" font-family="Georgia, serif" font-size="48" fill="#213547">Similar Route Trip</text>
  <text x="600" y="238" text-anchor="middle" font-family="Georgia, serif" font-size="24" fill="#213547">Route image placeholder</text>
</svg>
